<?xml version="1.0" encoding="utf-8"?>
<!-- Generator: Adobe Illustrator 18.1.1, SVG Export Plug-In . SVG Version: 6.00 Build 0)  -->
<!DOCTYPE svg PUBLIC "-//W3C//DTD SVG 1.1//EN" "http://www.w3.org/Graphics/SVG/1.1/DTD/svg11.dtd">
<svg version="1.1" id="Layer_1" xmlns="http://www.w3.org/2000/svg" xmlns:xlink="http://www.w3.org/1999/xlink" x="0px" y="0px"
	 viewBox="0 0 71.6 71.6" enable-background="new 0 0 71.6 71.6" xml:space="preserve">
<rect x="52.8" y="6" fill="#5755BB" width="12.3" height="12.3"/>
<rect x="16.3" y="16.3" fill="#5755BB" width="39.1" height="39.1"/>
<path fill="#34349B" d="M58.8,0h-46C5.7,0,0,5.7,0,12.8v46c0,7.1,5.7,12.8,12.8,12.8h46c7.1,0,12.8-5.7,12.8-12.8v-46
	C71.6,5.7,65.9,0,58.8,0z M35.8,54.1c-10.1,0-18.3-8.2-18.3-18.3c0-10.1,8.2-18.3,18.3-18.3s18.3,8.2,18.3,18.3
	C54.1,45.9,45.9,54.1,35.8,54.1z M63.4,14.6c0,0.9-0.7,1.6-1.6,1.6H56c-0.9,0-1.6-0.7-1.6-1.6V8.9c0-0.9,0.7-1.6,1.6-1.6h5.8
	c0.9,0,1.6,0.7,1.6,1.6V14.6z"/>
<g>
	<path fill="#FFFFFF" d="M20.8,38.7c0,0,8.5,7.9,16.8,6.3c8.3-1.6,13.2-12.2,13.2-12.2s-8.5-7.9-16.8-6.3S20.8,38.7,20.8,38.7z"/>
	<circle cx="35.8" cy="35.8" r="4.3"/>
</g>
</svg>
