<?xml version="1.0" encoding="utf-8"?>
<!-- Generator: Adobe Illustrator 18.1.1, SVG Export Plug-In . SVG Version: 6.00 Build 0)  -->
<!DOCTYPE svg PUBLIC "-//W3C//DTD SVG 1.1//EN" "http://www.w3.org/Graphics/SVG/1.1/DTD/svg11.dtd">
<svg version="1.1" id="Layer_1" xmlns="http://www.w3.org/2000/svg" xmlns:xlink="http://www.w3.org/1999/xlink" x="0px" y="0px"
	 viewBox="235.1 0 177 792" enable-background="new 235.1 0 177 792" xml:space="preserve">
<g id="Layer_1_1_">
	<g>
		<g>
			<g>
				<g>
					<defs>
						<rect id="SVGID_1_" x="235.1" width="177" height="792"/>
					</defs>
					<clipPath id="SVGID_2_">
						<use xlink:href="#SVGID_1_"  overflow="visible"/>
					</clipPath>
					<path clip-path="url(#SVGID_2_)" fill="#FFFFFF" d="M384.2,0H253.8c-14,0-18.6,14-18.6,23.3v74.5v23.3v23.3v28v479.9L319,792
						l88.5-130.4V177v-28v-23.3v-28V23.3C407.5,14,398.2,0,384.2,0 M314.3,726.8l-37.3-60.6h97.8l-37.3,60.6H314.3z M258.4,177H305
						v461.2h-46.6V177z M379.6,642.9H333V177h46.6V642.9z M379.6,153.7H258.4v-23.3h121.1V153.7L379.6,153.7z M258.4,28h121.1v69.9
						H258.4L258.4,28L258.4,28z"/>
				</g>
			</g>
		</g>
	</g>
</g>
</svg>
