<?xml version="1.0" encoding="utf-8"?>
<!-- Generator: Adobe Illustrator 18.1.1, SVG Export Plug-In . SVG Version: 6.00 Build 0)  -->
<!DOCTYPE svg PUBLIC "-//W3C//DTD SVG 1.1//EN" "http://www.w3.org/Graphics/SVG/1.1/DTD/svg11.dtd">
<svg version="1.1" id="Layer_1" xmlns="http://www.w3.org/2000/svg" xmlns:xlink="http://www.w3.org/1999/xlink" x="0px" y="0px"
	 viewBox="35.2 96.3 570.6 567.9" enable-background="new 35.2 96.3 570.6 567.9" xml:space="preserve">
<g>
	<g>
		<g>
			<defs>
				
					<rect id="SVGID_1_" x="22.1" y="91.1" transform="matrix(0.7326 0.6807 -0.6807 0.7326 352.4323 -102.8975)" width="570.1" height="612"/>
			</defs>
			<clipPath id="SVGID_2_">
				<use xlink:href="#SVGID_1_"  overflow="visible"/>
			</clipPath>
			<path clip-path="url(#SVGID_2_)" fill="#FFFFFF" d="M125.6,589.3c-54.8-51.5-87-122.4-90.2-199.7
				c-3.2-74.1,22.5-148.2,77.3-202.9c51.5-54.8,122.4-87,199.7-90.2c74.1-3.2,144.9,22.5,202.9,74.1c58,51.5,87,122.4,90.2,199.7
				c3.2,77.3-25.8,148.2-77.3,202.9s-122.4,87-199.7,90.2C254.5,669.8,180.4,640.8,125.6,589.3 M492.8,193.1
				c-48.3-45.1-112.7-70.9-183.6-67.6c-67.6,3.2-132.1,32.2-177.2,80.5s-70.9,116-67.6,183.6c3.2,67.6,32.2,132.1,80.5,177.2
				c48.3,45.1,116,70.9,183.6,70.9c67.6-3.2,132.1-32.2,177.2-80.5s70.9-116,67.6-183.6C573.3,302.6,544.4,241.4,492.8,193.1"/>
		</g>
	</g>
	<g>
		<g>
			<defs>
				
					<rect id="SVGID_3_" x="22.1" y="91.1" transform="matrix(0.7326 0.6807 -0.6807 0.7326 352.4323 -102.8975)" width="570.1" height="612"/>
			</defs>
			<clipPath id="SVGID_4_">
				<use xlink:href="#SVGID_3_"  overflow="visible"/>
			</clipPath>
			<path clip-path="url(#SVGID_4_)" fill="#FFFFFF" d="M309.2,392.8c-6.4-6.4-6.4-16.1,0-22.5c6.4-6.4,16.1-6.4,22.5,0
				c6.4,6.4,6.4,16.1,0,22.5C325.3,396,315.7,396,309.2,392.8"/>
		</g>
	</g>
	<g>
		<g>
			<defs>
				
					<rect id="SVGID_5_" x="22.1" y="91.1" transform="matrix(0.7326 0.6807 -0.6807 0.7326 352.4323 -102.8975)" width="570.1" height="612"/>
			</defs>
			<clipPath id="SVGID_6_">
				<use xlink:href="#SVGID_5_"  overflow="visible"/>
			</clipPath>
			<path clip-path="url(#SVGID_6_)" fill="#FFFFFF" d="M357.5,341.2c-16.1-12.9-16.1-38.7-3.2-51.5l67.6-74.1
				c12.9-16.1,38.7-16.1,51.5-3.2c16.1,12.9,16.1,38.7,3.2,51.5L409.1,338C396.2,354.1,370.4,354.1,357.5,341.2 M460.6,231.7
				c-6.4-6.4-12.9-3.2-19.3,0l-67.6,74.1c-6.4,6.4-3.2,12.9,0,19.3c6.4,6.4,12.9,3.2,19.3,0l67.6-74.1
				C463.8,244.6,463.8,234.9,460.6,231.7"/>
		</g>
	</g>
	<g>
		<g>
			<defs>
				
					<rect id="SVGID_7_" x="22.1" y="91.1" transform="matrix(0.7326 0.6807 -0.6807 0.7326 352.4323 -102.8975)" width="570.1" height="612"/>
			</defs>
			<clipPath id="SVGID_8_">
				<use xlink:href="#SVGID_7_"  overflow="visible"/>
			</clipPath>
			<path clip-path="url(#SVGID_8_)" fill="#FFFFFF" d="M231.9,347.7l-74.1-70.9c-16.1-12.9-16.1-35.4-3.2-51.5s38.7-16.1,51.5-3.2
				l74.1,67.6c16.1,12.9,16.1,38.7,3.2,51.5C270.6,360.6,244.8,360.6,231.9,347.7 M190,241.4c-6.4-6.4-12.9-3.2-19.3,0
				c-6.4,6.4-3.2,12.9,0,19.3l74.1,67.6c6.4,6.4,12.9,3.2,19.3,0c6.4-6.4,3.2-12.9,0-19.3L190,241.4z"/>
		</g>
	</g>
	<g>
		<g>
			<defs>
				
					<rect id="SVGID_9_" x="22.1" y="91.1" transform="matrix(0.7326 0.6807 -0.6807 0.7326 352.4323 -102.8975)" width="570.1" height="612"/>
			</defs>
			<clipPath id="SVGID_10_">
				<use xlink:href="#SVGID_9_"  overflow="visible"/>
			</clipPath>
			<path clip-path="url(#SVGID_10_)" fill="#FFFFFF" d="M167.5,544.2c-16.1-12.9-16.1-38.7-3.2-51.5l67.6-74.1
				c12.9-16.1,38.7-16.1,51.5-3.2c16.1,12.9,16.1,38.7,3.2,51.5L219,540.9C206.1,560.3,180.4,560.3,167.5,544.2 M270.6,434.7
				c-6.4-6.4-12.9-3.2-19.3,0l-67.6,74.1c-6.4,6.4-3.2,12.9,0,19.3c6.4,6.4,12.9,3.2,19.3,0l67.6-74.1
				C277,447.5,273.8,441.1,270.6,434.7"/>
		</g>
	</g>
	<g>
		<g>
			<defs>
				
					<rect id="SVGID_11_" x="22.1" y="91.1" transform="matrix(0.7326 0.6807 -0.6807 0.7326 352.4323 -102.8975)" width="570.1" height="612"/>
			</defs>
			<clipPath id="SVGID_12_">
				<use xlink:href="#SVGID_11_"  overflow="visible"/>
			</clipPath>
			<path clip-path="url(#SVGID_12_)" fill="#FFFFFF" d="M434.8,534.5l-74.1-67.6c-16.1-12.9-16.1-38.7-3.2-51.5
				c12.9-16.1,38.7-16.1,51.5-3.2l74.1,67.6c16.1,12.9,16.1,38.7,3.2,51.5C473.5,547.4,450.9,550.6,434.8,534.5 M396.2,431.4
				c-6.4-6.4-12.9-3.2-19.3,0c-6.4,3.2-3.2,12.9,0,19.3l74.1,67.6c6.4,6.4,12.9,3.2,19.3,0c6.4-6.4,3.2-12.9,0-19.3L396.2,431.4z"/>
		</g>
	</g>
</g>
</svg>
