<?xml version="1.0" encoding="utf-8"?>
<!-- Generator: Adobe Illustrator 18.1.1, SVG Export Plug-In . SVG Version: 6.00 Build 0)  -->
<!DOCTYPE svg PUBLIC "-//W3C//DTD SVG 1.1//EN" "http://www.w3.org/Graphics/SVG/1.1/DTD/svg11.dtd">
<svg version="1.1" id="Layer_1" xmlns="http://www.w3.org/2000/svg" xmlns:xlink="http://www.w3.org/1999/xlink" x="0px" y="0px"
	 viewBox="0 0 66.5 98.2" enable-background="new 0 0 66.5 98.2" xml:space="preserve">
<g>
	<rect x="31.9" fill="#D9880F" width="16.7" height="12.4"/>
	<polygon fill="#D9880F" points="46.1,89.5 40.3,91.6 34.4,89.5 36.9,93.2 36.8,93.2 40.3,98.2 43.7,93.2 43.7,93.2 	"/>
	<path fill="#D9880F" d="M65.7,73.4L64,71.2c1.6-4.2,1.6-8.5-0.1-12.5c-2.5-5.9-8.6-10.1-15.2-10.4v-1.5c3.7-2.6,6.1-6.9,6.1-11.8
		c0-4.9-2.4-9.1-6.1-11.8v-6v-0.1v-1.8H31.9v1.8v0.1v6c-3.7,2.6-6.1,6.9-6.1,11.8c0,3,0.9,5.8,2.5,8.1c-3.5-1-7.5-1-11.2,0.1
		C11.8,44.9,7.9,48.4,6,53l-2.3,0.8c-1.6,0.5-2.7,1.9-2.9,3.5L0,62.8c0,0.3,0,0.7,0.1,1c2,4.5,7,4.9,12,3.7c2.7-0.6,4-3.2,2.9-5.7
		c-0.5-1-0.7-2.2,0.3-4.1c0.4-0.7,0.2-1.6-0.4-2.2l-2.5-2.2c1.9-2.8,4.8-4,6.4-4.5c4.9-1.5,10.2-0.2,13.1,3v33.9h16.7v-7.1
		c2.7,3.5,7.2,5.5,11.5,4.6c0.8-0.2,1.5-0.6,2-1.2l3.4-4C66.8,76.8,66.8,74.8,65.7,73.4z M58.7,68.6l-4.9-0.3
		c-1.5-0.1-2.9,0.8-3.4,2.3c-0.4,1.2-0.9,2.1-1.6,2.8c-0.1,0.1-0.1,0.1-0.1,0.2V54.1c4.3,0.3,8.2,3,9.8,6.8
		C59.5,63.4,59.6,66,58.7,68.6z"/>
</g>
<path fill="#FFFFFF" d="M25.8,35c0,0,6.5,8.9,14.5,8.9S54.7,35,54.7,35s-6.5-8.9-14.5-8.9S25.8,35,25.8,35z"/>
<g>
	<defs>
		<path id="SVGID_1_" d="M25.8,35c0,0,6.5,8.9,14.5,8.9S54.7,35,54.7,35s-6.5-8.9-14.5-8.9S25.8,35,25.8,35z"/>
	</defs>
	<clipPath id="SVGID_2_">
		<use xlink:href="#SVGID_1_"  overflow="visible"/>
	</clipPath>
	<circle clip-path="url(#SVGID_2_)" cx="36.8" cy="29.6" r="6.7"/>
</g>
<path fill="#D9880F" d="M49.3,44.3c0,0-1.2-3.9-7-4.9c-10.3-1.9-14,3.4-14,3.4L39,49.7L49.3,44.3z"/>
</svg>
