<?xml version="1.0" encoding="utf-8"?>
<!-- Generator: Adobe Illustrator 18.1.1, SVG Export Plug-In . SVG Version: 6.00 Build 0)  -->
<!DOCTYPE svg PUBLIC "-//W3C//DTD SVG 1.1//EN" "http://www.w3.org/Graphics/SVG/1.1/DTD/svg11.dtd">
<svg version="1.1" id="Layer_1" xmlns="http://www.w3.org/2000/svg" xmlns:xlink="http://www.w3.org/1999/xlink" x="0px" y="0px"
	 viewBox="184.5 21 347.2 390" enable-background="new 184.5 21 347.2 390" xml:space="preserve">
<circle fill="#28A8C6" cx="496.2" cy="295.8" r="35.4"/>
<g>
	<circle fill="#2EA0BF" cx="358.1" cy="216" r="79"/>
	<circle fill="#2EA0BF" cx="358.1" cy="375.6" r="35.4"/>
	<circle fill="#2EA0BF" cx="219.9" cy="295.8" r="35.4"/>
	<circle fill="#2EA0BF" cx="219.9" cy="136.2" r="35.4"/>
	<circle fill="#2EA0BF" cx="358.1" cy="56.4" r="35.4"/>
	<g>
		<path fill="#2EA0BF" d="M439,175.9l19.8-11.7c-2.3-3.1-4.3-6.6-5.8-10.1l-19.8,11.7C435.1,169.3,437.1,172.4,439,175.9z"/>
		<path fill="#2EA0BF" d="M363.9,126.1v-23c-1.9,0.4-3.9,0.4-5.8,0.4c-1.9,0-3.9,0-5.8-0.4v23c1.9,0,3.9-0.4,5.8-0.4
			C360,125.7,361.9,125.7,363.9,126.1z"/>
		<path fill="#2EA0BF" d="M352.2,305.9v23c1.9-0.4,3.9-0.4,5.8-0.4c1.9,0,3.9,0,5.8,0.4v-23c-1.9,0-3.9,0.4-5.8,0.4
			C356.1,306.3,354.2,306.3,352.2,305.9z"/>
		<path fill="#2EA0BF" d="M458.9,267.4l-20.2-11.7c-1.6,3.5-3.5,7-5.8,10.1l19.8,11.7C454.6,274,456.5,270.5,458.9,267.4z"/>
		<path fill="#2EA0BF" d="M257.3,164.6l19.8,11.7c1.6-3.5,3.5-7,5.8-10.1l-19.8-11.7C261.5,158,259.6,161.5,257.3,164.6z"/>
		<path fill="#2EA0BF" d="M277.1,256.1l-20.2,11.7c2.3,3.1,4.3,6.6,5.8,10.1l19.8-11.7C281,262.7,279,259.6,277.1,256.1z"/>
	</g>
	<circle fill="#2EA0BF" cx="496.2" cy="136.2" r="35.4"/>
</g>
<path fill="#FFFFFF" d="M286.4,216c0,0,31.9,44,71.6,44s71.6-44,71.6-44s-31.9-44.4-71.6-44.4S286.4,216,286.4,216z"/>
<circle cx="358.1" cy="216" r="37.8"/>
<path fill="#FFFFFF" d="M188,136.2c0,0,14.4,19.5,31.9,19.5s31.9-19.5,31.9-19.5s-14.4-19.5-31.9-19.5S188,136.2,188,136.2z"/>
<g>
	<g>
		<defs>
			<path id="SVGID_1_" d="M188,136.2c0,0,14.4,19.5,31.9,19.5s31.9-19.5,31.9-19.5s-14.4-19.5-31.9-19.5S188,136.2,188,136.2z"/>
		</defs>
		<clipPath id="SVGID_2_">
			<use xlink:href="#SVGID_1_"  overflow="visible"/>
		</clipPath>
		<circle clip-path="url(#SVGID_2_)" cx="226.9" cy="127.7" r="16.3"/>
	</g>
</g>
<path fill="#FFFFFF" d="M464.3,136.2c0,0,14.4,19.5,31.9,19.5s31.9-19.5,31.9-19.5s-14.4-19.5-31.9-19.5
	C478.7,116.4,464.3,136.2,464.3,136.2z"/>
<g>
	<g>
		<defs>
			<path id="SVGID_3_" d="M464.3,136.2c0,0,14.4,19.5,31.9,19.5s31.9-19.5,31.9-19.5s-14.4-19.5-31.9-19.5
				C478.7,116.4,464.3,136.2,464.3,136.2z"/>
		</defs>
		<clipPath id="SVGID_4_">
			<use xlink:href="#SVGID_3_"  overflow="visible"/>
		</clipPath>
		<circle clip-path="url(#SVGID_4_)" cx="496.2" cy="139.7" r="16.3"/>
	</g>
</g>
<path fill="#FFFFFF" d="M464.3,295.8c0,0,14.4,19.5,31.9,19.5s31.9-19.5,31.9-19.5s-14.4-19.5-31.9-19.5S464.3,295.8,464.3,295.8z"
	/>
<g>
	<g>
		<defs>
			<path id="SVGID_5_" d="M464.3,295.8c0,0,14.4,19.5,31.9,19.5s31.9-19.5,31.9-19.5s-14.4-19.5-31.9-19.5S464.3,295.8,464.3,295.8z
				"/>
		</defs>
		<clipPath id="SVGID_6_">
			<use xlink:href="#SVGID_5_"  overflow="visible"/>
		</clipPath>
		<circle clip-path="url(#SVGID_6_)" cx="491.5" cy="289.9" r="16.3"/>
	</g>
</g>
<path fill="#FFFFFF" d="M326.1,375.6c0,0,14.4,19.5,31.9,19.5c17.5,0,31.9-19.5,31.9-19.5s-14.4-19.5-31.9-19.5
	C340.5,356.1,326.1,375.6,326.1,375.6z"/>
<g>
	<g>
		<defs>
			<path id="SVGID_7_" d="M326.1,375.6c0,0,14.4,19.5,31.9,19.5c17.5,0,31.9-19.5,31.9-19.5s-14.4-19.5-31.9-19.5
				C340.5,356.1,326.1,375.6,326.1,375.6z"/>
		</defs>
		<clipPath id="SVGID_8_">
			<use xlink:href="#SVGID_7_"  overflow="visible"/>
		</clipPath>
		<circle clip-path="url(#SVGID_8_)" cx="365.8" cy="375.6" r="16.3"/>
	</g>
</g>
<path fill="#FFFFFF" d="M188,295.8c0,0,14.4,19.5,31.9,19.5s31.9-19.5,31.9-19.5s-14.4-19.5-31.9-19.5S188,295.8,188,295.8z"/>
<g>
	<g>
		<defs>
			<path id="SVGID_9_" d="M188,295.8c0,0,14.4,19.5,31.9,19.5s31.9-19.5,31.9-19.5s-14.4-19.5-31.9-19.5S188,295.8,188,295.8z"/>
		</defs>
		<clipPath id="SVGID_10_">
			<use xlink:href="#SVGID_9_"  overflow="visible"/>
		</clipPath>
		<circle clip-path="url(#SVGID_10_)" cx="219.9" cy="289.2" r="16.3"/>
	</g>
</g>
<path fill="#FFFFFF" d="M326.1,56.4c0,0,14.4,19.5,31.9,19.5c17.5,0,31.9-19.5,31.9-19.5S375.6,37,358.1,37
	C340.5,37,326.1,56.4,326.1,56.4z"/>
<g>
	<g>
		<defs>
			<path id="SVGID_11_" d="M326.1,56.4c0,0,14.4,19.5,31.9,19.5c17.5,0,31.9-19.5,31.9-19.5S375.6,37,358.1,37
				C340.5,37,326.1,56.4,326.1,56.4z"/>
		</defs>
		<clipPath id="SVGID_12_">
			<use xlink:href="#SVGID_11_"  overflow="visible"/>
		</clipPath>
		<circle clip-path="url(#SVGID_12_)" cx="354.2" cy="59.9" r="16.3"/>
	</g>
</g>
<polygon fill="#2EA0BF" points="280.6,216 433.2,216 393.5,154.5 332.4,155.7 294.6,183.3 "/>
</svg>
