<?xml version="1.0" encoding="utf-8"?>
<!-- Generator: Adobe Illustrator 18.1.1, SVG Export Plug-In . SVG Version: 6.00 Build 0)  -->
<!DOCTYPE svg PUBLIC "-//W3C//DTD SVG 1.1//EN" "http://www.w3.org/Graphics/SVG/1.1/DTD/svg11.dtd">
<svg version="1.1" id="Layer_1" xmlns="http://www.w3.org/2000/svg" xmlns:xlink="http://www.w3.org/1999/xlink" x="0px" y="0px"
	 viewBox="191.1 25 345.6 384.1" enable-background="new 191.1 25 345.6 384.1" xml:space="preserve">
<path fill="#D9A020" d="M502.3,176.7c0-39.9-32.1-71.9-71.9-71.9c-36.7,0-66.9,27.4-71.2,62.6l0,0
	c-3.5,181.8-142.7,166.2-168.1,140.7c0,68.8,106.7,113,193.9,98.1C523,382.7,509.7,205.6,502.3,176.7z"/>
<g>
	<path fill="#FFFFFF" d="M403,163c0,0,22.7,19.5,41,13.7c18.4-5.9,25.8-34.8,25.8-34.8s-22.7-19.5-41-13.7
		C410.4,134.1,403,163,403,163z"/>
	<g>
		<g>
			<defs>
				<path id="SVGID_1_" d="M403,163c0,0,22.7,19.5,41,13.7c18.4-5.9,25.8-34.8,25.8-34.8s-22.7-19.5-41-13.7
					C410.4,134.1,403,163,403,163z"/>
			</defs>
			<clipPath id="SVGID_2_">
				<use xlink:href="#SVGID_1_"  overflow="visible"/>
			</clipPath>
			<circle clip-path="url(#SVGID_2_)" cx="453.8" cy="146.2" r="18.8"/>
		</g>
	</g>
</g>
<polygon fill="#D9A020" points="369,97 379.9,86 354.1,59.8 419.8,25 431.2,67.6 451.5,67.6 447.6,81.7 "/>
<path fill="#D9A020" d="M489,148.6c0,0-33.6,32.4,8.2,59.4c21.1-8.6,39.5-44.6,39.5-44.6S525,150.5,489,148.6z"/>
<path fill="#D9A020" d="M368.6,207.2c-2.7,0-5.5,0-8.2,0.4h3.1h-3.1c-2.7,0.4-2,0.8-4.3,1.6c-23.5,10.2-78.2,3.1-119.2-60.6
	c-42.6,39.5-42.6,125.1,30.9,170.1c27.8,17.2,61.4,26.2,100.9,23.8c37.5-2.3,67.6-30.5,67.6-67.6
	C436.2,237.3,406.1,207.2,368.6,207.2z"/>
</svg>
