<?xml version="1.0" encoding="utf-8"?>
<!-- Generator: Adobe Illustrator 18.1.1, SVG Export Plug-In . SVG Version: 6.00 Build 0)  -->
<!DOCTYPE svg PUBLIC "-//W3C//DTD SVG 1.1//EN" "http://www.w3.org/Graphics/SVG/1.1/DTD/svg11.dtd">
<svg version="1.1" id="Layer_1" xmlns="http://www.w3.org/2000/svg" xmlns:xlink="http://www.w3.org/1999/xlink" x="0px" y="0px"
	 viewBox="91.8 25.2 526.4 374.9" enable-background="new 91.8 25.2 526.4 374.9" xml:space="preserve">
<path fill="#8A4DC4" d="M533.1,31.2c-51.2-6.6-94.4-6-177.5-6s-126.9-0.7-178.1,6C96.5,42.5,91.8,92.4,91.8,212.7
	s4.7,170.1,85.7,181.4c51.2,6.6,94.4,6,177.5,6s126.9,0.7,177.5-6c81.1-11.3,85.7-61.1,85.7-181.4S614.9,42.5,533.1,31.2z"/>
<path fill="#FFFFFF" d="M208.8,214.7c0,0,65.8,90.4,146.9,90.4s146.9-90.4,146.9-90.4s-65.8-90.4-146.9-90.4
	S208.8,214.7,208.8,214.7z"/>
<g>
	<g>
		<defs>
			<path id="SVGID_1_" d="M208.8,214.7c0,0,65.8,90.4,146.9,90.4s146.9-90.4,146.9-90.4s-65.8-90.4-146.9-90.4
				S208.8,214.7,208.8,214.7z"/>
		</defs>
		<clipPath id="SVGID_2_">
			<use xlink:href="#SVGID_1_"  overflow="visible"/>
		</clipPath>
		<circle clip-path="url(#SVGID_2_)" cx="388.9" cy="193.4" r="77.8"/>
	</g>
</g>
<path fill="#8A4DC4" d="M224.1,97c0,0,23.9,65.8,130.9,83.7c115,19.3,172.1-43.2,172.1-43.2L224.1,97z"/>
</svg>
